<svg xmlns="http://www.w3.org/2000/svg" viewBox="0 0 200 200">
  <!-- J letterform -->
  <path d="M55 30 H100 V130 a45 45 0 0 1 -90 0 v-14 h32 v12 a13 13 0 0 0 26 0 V62 H55 Z" fill="#132A63"/>

  <!-- person: head -->
  <circle cx="128" cy="62" r="15" fill="#3E64E8"/>
  <!-- person: raised arm/body as one continuous wedge -->
  <path d="M112 82 L146 40 L156 46 L120 96 Z" fill="#3E64E8"/>
  <!-- tie -->
  <path d="M121 80 L128 78 L134 80 L129 118 L124 118 Z" fill="#132A63"/>

  <!-- star -->
  <path d="M158 16 L163 30 L177 35 L163 40 L158 54 L153 40 L139 35 L153 30 Z" fill="#132A63"/>

  <!-- briefcase -->
  <rect x="103" y="120" width="52" height="38" rx="6" fill="#132A63"/>
  <path d="M120 120 v-8 a9 9 0 0 1 18 0 v8" fill="none" stroke="#132A63" stroke-width="6"/>
  <rect x="126" y="134" width="6" height="8" rx="1" fill="#ffffff"/>

  <!-- double crescent -->
  <path d="M16 148 Q100 190 184 140" stroke="#132A63" stroke-width="9" fill="none" stroke-linecap="round"/>
  <path d="M24 160 Q100 196 176 152" stroke="#3E64E8" stroke-width="7" fill="none" stroke-linecap="round"/>
</svg>
